{"title":"Õuduste Öö 2 ( Fright Night 2013 ) DVDRIP EESTI","uid":9383404,"size":1682703266,"categoryP":"video","categoryS":"movies","magnet":"?xt=urn:btih:eebfb3dac9f4c03fd0f95ac13633e7f0fcf10cde&amp;dn=%26Otilde%3Buduste+%26Ouml%3B%26ouml%3B+2+%28+Fright+Night+2013+%29+DVDRIP+EESTI&amp;tr=udp%3A%2F%2Ftracker.openbittorrent.com%3A80&amp;tr=udp%3A%2F%2Fopen.demonii.com%3A1337&amp;tr=udp%3A%2F%2Ftracker.coppersurfer.tk%3A6969&amp;tr=udp%3A%2F%2Fexodus.desync.com%3A6969","seeders":1,"leechers":0,"uploader":"immri","files":1,"time":1387751029,"description":"Format                                   : AVI\nFormat/Info                              : Audio Video Interleave\nFile size                                : 1.57 GiB\nDuration                                 : 1h 39mn\nOverall bit rate                         : 2 249 Kbps\n\nVideo\nID                                       : 0\nFormat                                   : MPEG-4 Visual\nFormat settings, BVOP                    : 1\nFormat settings, QPel                    : No\nFormat settings, GMC                     : No warppoints\nFormat settings, Matrix                  : Default (H.263)\nMuxing mode                              : Packed bitstream\nCodec ID                                 : DX50\nCodec ID/Hint                            : DivX 5\nDuration                                 : 1h 39mn\nBit rate                                 : 2 048 Kbps\nWidth                                    : 720 pixels\nHeight                                   : 406 pixels\nDisplay aspect ratio                     : 16:9\nFrame rate                               : 23.976 fps\nColor space                              : YUV\nChroma subsampling                       : 4:2:0\nBit depth                                : 8 bits\nScan type                                : Progressive\nCompression mode                         : Lossy\nBits/(Pixel*Frame)                       : 0.292\nStream size                              : 1.43 GiB (91%)\nTitle                                    : Video \nWriting library                          : DivX 2682\n\nAudio\nID                                       : 1\nFormat                                   : MPEG Audio\nFormat version                           : Version 1\nFormat profile                           : Layer 3\nMode                                     : Joint stereo\nMode extension                           : MS Stereo\nCodec ID                                 : 55\nCodec ID/Hint                            : MP3\nDuration                                 : 1h 39mn\nBit rate mode                            : Constant\nBit rate                                 : 192 Kbps\nChannel(s)                               : 2 channels\nSampling rate                            : 48.0 KHz\nCompression mode                         : Lossy\nStream size                              : 137 MiB (9%)\nAlignment                                : Split accross interleaves\nInterleave, duration                     : 42 ms (1.00 video frame)\nInterleave, preload duration             : 500 ms\nTitle                                    : Audio - en-US01\n\n","torrent":{"xt":"urn:btih:eebfb3dac9f4c03fd0f95ac13633e7f0fcf10cde","amp;dn":"%26Otilde%3Buduste+%26Ouml%3B%26ouml%3B+2+%28+Fright+Night+2013+%29+DVDRIP+EESTI","amp;tr":["udp%3A%2F%2Ftracker.openbittorrent.com%3A80","udp%3A%2F%2Fopen.demonii.com%3A1337","udp%3A%2F%2Ftracker.coppersurfer.tk%3A6969","udp%3A%2F%2Fexodus.desync.com%3A6969"],"infoHash":"eebfb3dac9f4c03fd0f95ac13633e7f0fcf10cde","infoHashBuffer":{"type":"Buffer","data":[238,191,179,218,201,244,192,63,208,249,90,193,54,51,231,240,252,241,12,222]},"announce":[],"urlList":[]}}